<?xml version="1.0" encoding="UTF-8" standalone="no"?>
<svg width="82px" height="30px" viewBox="0 0 82 30" version="1.1" xmlns="http://www.w3.org/2000/svg" xmlns:xlink="http://www.w3.org/1999/xlink">
    <!-- Generator: Sketch 3.7.2 (28276) - http://www.bohemiancoding.com/sketch -->
    <title>Group 13</title>
    <desc>Created with Sketch.</desc>
    <defs>
        <rect id="path-1" x="0" y="0" width="82" height="30"></rect>
        <mask id="mask-2" maskContentUnits="userSpaceOnUse" maskUnits="objectBoundingBox" x="0" y="0" width="82" height="30" fill="white">
            <use xlink:href="#path-1"></use>
        </mask>
    </defs>
    <g id="Page-1" stroke="none" stroke-width="1" fill="none" fill-rule="evenodd">
        <g id="Home" transform="translate(-52.000000, -13.000000)">
            <g id="Group-5">
                <g id="Group-13" transform="translate(52.000000, 13.000000)">
                    <use id="Rectangle-508" stroke="#FFFFFF" mask="url(#mask-2)" stroke-width="4" xlink:href="#path-1"></use>
                    <path d="M27.9140625,12.8945312 C27.9140625,14.195319 27.4702193,15.1957973 26.5825195,15.8959961 C25.6948198,16.5961949 24.4248129,16.9462891 22.7724609,16.9462891 L21.2607422,16.9462891 L21.2607422,22 L19.7666016,22 L19.7666016,9.15039062 L23.0976562,9.15039062 C26.3086098,9.15039062 27.9140625,10.398425 27.9140625,12.8945312 L27.9140625,12.8945312 Z M21.2607422,15.6630859 L22.6054688,15.6630859 C23.9296941,15.6630859 24.8876924,15.4492209 25.4794922,15.0214844 C26.071292,14.5937479 26.3671875,13.9082078 26.3671875,12.9648438 C26.3671875,12.1152301 26.08887,11.482424 25.5322266,11.0664062 C24.9755832,10.6503885 24.1084043,10.4423828 22.9306641,10.4423828 L21.2607422,10.4423828 L21.2607422,15.6630859 Z M39.8847656,22 L38.1269531,22 L33.4423828,15.7685547 L32.0976562,16.9638672 L32.0976562,22 L30.6035156,22 L30.6035156,9.15039062 L32.0976562,9.15039062 L32.0976562,15.5224609 L37.9248047,9.15039062 L39.6914062,9.15039062 L34.5234375,14.7314453 L39.8847656,22 Z M49.7988281,12.8945312 C49.7988281,14.195319 49.3549849,15.1957973 48.4672852,15.8959961 C47.5795854,16.5961949 46.3095786,16.9462891 44.6572266,16.9462891 L43.1455078,16.9462891 L43.1455078,22 L41.6513672,22 L41.6513672,9.15039062 L44.9824219,9.15039062 C48.1933754,9.15039062 49.7988281,10.398425 49.7988281,12.8945312 L49.7988281,12.8945312 Z M43.1455078,15.6630859 L44.4902344,15.6630859 C45.8144597,15.6630859 46.772458,15.4492209 47.3642578,15.0214844 C47.9560576,14.5937479 48.2519531,13.9082078 48.2519531,12.9648438 C48.2519531,12.1152301 47.9736356,11.482424 47.4169922,11.0664062 C46.8603488,10.6503885 45.99317,10.4423828 44.8154297,10.4423828 L43.1455078,10.4423828 L43.1455078,15.6630859 Z M62.5253906,22 L60.8203125,22 L53.7978516,11.2158203 L53.7275391,11.2158203 C53.8212895,12.4814516 53.8681641,13.6415963 53.8681641,14.6962891 L53.8681641,22 L52.4882812,22 L52.4882812,9.15039062 L54.1757812,9.15039062 L61.1806641,19.890625 L61.2509766,19.890625 C61.2392578,19.7324211 61.2128908,19.2241254 61.171875,18.3657227 C61.1308592,17.5073199 61.1162109,16.8935565 61.1279297,16.5244141 L61.1279297,9.15039062 L62.5253906,9.15039062 L62.5253906,22 Z" id="PKPN" fill="#FFFFFF"></path>
                </g>
            </g>
        </g>
    </g>
</svg>