<?xml version="1.0" encoding="UTF-8" standalone="no"?>
<svg width="126px" height="126px" viewBox="0 0 126 126" version="1.1" xmlns="http://www.w3.org/2000/svg" xmlns:xlink="http://www.w3.org/1999/xlink">
    <!-- Generator: Sketch 3.8.1 (29687) - http://www.bohemiancoding.com/sketch -->
    <title>Group 17 Copy 5</title>
    <desc>Created with Sketch.</desc>
    <defs>
        <linearGradient x1="0%" y1="0%" x2="141.970486%" y2="135.391865%" id="linearGradient-1">
            <stop stop-color="#00BAFF" offset="0%"></stop>
            <stop stop-color="#76D8E4" offset="49.5953685%"></stop>
            <stop stop-color="#F5FDC7" offset="100%"></stop>
        </linearGradient>
        <polygon id="path-2" points="24 -3.41421356 24 36.5857864 28 45.4142136 32 36.5857864 32 -3.41421356"></polygon>
        <mask id="mask-3" maskContentUnits="userSpaceOnUse" maskUnits="objectBoundingBox" x="0" y="0" width="8" height="48.8284271" fill="white">
            <use xlink:href="#path-2"></use>
        </mask>
        <rect id="path-4" x="37" y="8" width="6" height="2"></rect>
        <mask id="mask-5" maskContentUnits="userSpaceOnUse" maskUnits="objectBoundingBox" x="0" y="0" width="6" height="2" fill="white">
            <use xlink:href="#path-4"></use>
        </mask>
    </defs>
    <g id="Page-1" stroke="none" stroke-width="1" fill="none" fill-rule="evenodd">
        <g id="Home" transform="translate(-549.000000, -2014.000000)">
            <g id="Group-20" transform="translate(0.000000, 1687.000000)">
                <g id="Group-17-Copy-5" transform="translate(549.000000, 327.000000)">
                    <circle id="Oval-1" fill="url(#linearGradient-1)" cx="63" cy="63" r="63"></circle>
                    <g id="Edit" transform="translate(41.000000, 38.000000)">
                        <path d="M44,17 L44,46.9950767 C44,48.1011449 43.1023652,49 41.9950767,49 L2.00492334,49 C0.898855112,49 0,48.1023652 0,46.9950767 L0,7.00492334 C0,5.89885511 0.897634756,5 2.00492334,5 L32,5 L32,7 L3.99729162,7 C2.89421792,7 2,7.89153983 2,8.99729162 L2,45.0027084 C2,46.1057821 2.89153983,47 3.99729162,47 L40.0027084,47 C41.1057821,47 42,46.1084602 42,45.0027084 L42,17 L44,17 Z" id="Rectangle-197" fill="#FFFFFF"></path>
                        <use id="Rectangle-200" stroke="#FFFFFF" mask="url(#mask-3)" stroke-width="4" transform="translate(28.000000, 21.000000) rotate(-315.000000) translate(-28.000000, -21.000000) " xlink:href="#path-2"></use>
                        <use id="Rectangle-247" stroke="#FFFFFF" mask="url(#mask-5)" stroke-width="4" fill="#FFFFFF" transform="translate(40.000000, 9.000000) rotate(45.000000) translate(-40.000000, -9.000000) " xlink:href="#path-4"></use>
                    </g>
                </g>
            </g>
        </g>
    </g>
</svg>